<?xml version="1.0" encoding="utf-8"?>
<!-- Svg Vector Icons : http://www.onlinewebfonts.com/icon -->
<!DOCTYPE svg PUBLIC "-//W3C//DTD SVG 1.1//EN" "http://www.w3.org/Graphics/SVG/1.1/DTD/svg11.dtd">
<svg version="1.1" xmlns="http://www.w3.org/2000/svg" xmlns:xlink="http://www.w3.org/1999/xlink" x="0px" y="0px" viewBox="0 0 1000 1000" enable-background="new 0 0 1000 1000" xml:space="preserve">
<metadata> Svg Vector Icons : http://www.onlinewebfonts.com/icon </metadata>
<g><g id="_x30_604-pizza-slice"><g><path d="M961.4,130.4c-4.7-8.4-11.3-14.9-15.7-23.6c-10.5-8.4-22-15.9-33.4-23.6c-7.1-0.8-13.1-2.6-17.7-5.9h-39.2c-7.9-1.9-11.1-8.6-15.7-13.7C834.8,58.8,827.8,56,824,50c-25-11.7-46.9-26.3-78.5-31.4c-3.7,0.4-4.3-2.2-7.8-2c-37.6-1.6-71.2,0.8-96.2,11.8c-5.9,4.6-13.2,7.8-19.6,11.8c-6.8,3.7-9.1,11.8-17.7,13.7C572,22.7,525,6.3,457.1,10.7c-28.5,4.2-54.3,11.1-76.5,21.6c-5.5,5.6-14,8.2-19.6,13.7c-8,3.8-10,13.5-19.6,15.7c-7.9-8.4-20.7-12-33.4-15.7c-7.5-1.7-15-3.3-23.6-3.9c-17.2-0.2-30,4-45.1,5.9c-10.9,6.8-23,12.3-35.3,17.7c-2.8,5.7-10.8,6.2-15.7,9.8c-7,2.2-10,8.3-17.7,9.8c-4.1,7-12,10.2-17.7,15.7c-5.4,5.8-7.1,15.2-15.7,17.7c-32.9-6.7-62.1,5.5-82.4,17.7c-15.2,21.4-24.3,49-21.6,88.3c2.9,3,3.2,8.6,3.9,13.7c3.1,2.8,5,6.8,5.9,11.8c4.7,7.1,8.7,14.8,13.7,21.6c5.5,6.3,10.7,12.9,17.7,17.7c5.7,6.7,10.5,14.4,21.6,15.7c5.6,4.2,21.5,1.9,27.5,0c30.5,58.5,60.5,117.5,90.3,176.6c10,15.4,17.4,35,25.5,49.1c2.4,4.1,4.4,6.5,5.9,9.8c2.8,6.1,4.9,12.1,7.8,17.7c2.1,4,5.8,6.1,7.9,9.8c3.5,6.5,5.8,15.1,7.8,19.6c0.3,0.7,3.5,1.1,3.9,2c3.6,6.7,5.7,15,7.8,19.6c0.3,0.7,3.5,1.1,3.9,2c4,7.3,5.6,15.7,9.8,23.5c0.6,1.2,3,2.3,3.9,3.9c3.5,6,6.3,11.7,7.8,17.7c6.2,4.9,8.8,13.4,11.8,21.6c5.3,5.8,9.4,12.8,11.8,21.6c10.8,11.5,14.6,29.9,25.5,41.2c1.7,9.4,8.1,14.1,9.8,23.5c7.5,3.6,6.3,16,13.7,19.6c6.5,15.8,14.3,30.1,23.5,43.2c6.9,15.4,14.2,30.3,23.6,43.2c6.2,16,15.3,29.2,25.5,41.2c3.8,7.3,8.5,13.8,11.8,21.6c2.7,8.4,9.3,12.9,11.8,21.6c11.2,11.7,16,29.8,35.3,33.4c4.5,5.6,11.5-2.8,19.6,0c6.9-1,12.8-2.9,21.6-2c21.2-20,34-48.4,51-72.6c15.3-26.5,35.1-48.7,45.1-80.5c15.5-25.7,24.8-57.7,35.3-88.3c14-27.8,26.7-57,41.2-84.4c29.5-53.5,57.5-108.6,82.4-166.8c7.8-12.4,11.1-29.4,19.6-41.2c5.2-15.8,14.4-27.5,19.6-43.2c11.5-30.3,24-59.7,27.5-98.1c8.8-15.4,14.6-33.9,21.6-51c13.8-0.6,21-7.8,31.4-11.8c17.7-18.9,34.7-38.6,41.2-68.7v-31.4C964.1,143.4,963.5,136.2,961.4,130.4z M461,852.6c-4.1-5.7-4.4-15.2-9.8-19.6c0.2-6.4,11.7-1.4,9.8-9.8c0.4-3.7-2.2-4.3-2-7.9c-6.4-1.1-9.1,1.3-13.7,2c-5.1-10-9.9-20.2-13.7-31.4c13.2-6.4,25.6-13.6,45.1-13.7c8.4,5.4,13.1,14.4,19.6,21.6c-0.9,9.6,2,23-2,29.4h-2C487,838.1,477,848.4,461,852.6z M692.5,634.8c-1,9.4-5.5,15.4-9.8,21.6c-2.5,8.7-6,16.2-9.8,23.6c-4.3,6.2-5.3,15.6-11.8,19.6c-7.6-0.9-8-9-11.8-13.7c-3.2-4.7-3.1-12.6-5.9-17.7c1.4-13.8-3.3-21.5-2-35.3c0.7-1.4,3.2-2.7,3.9-3.9c3-4.8,6.7-10.1,13.7-13.7c10.9-5.6,31.2-9.4,45.1-2C700.9,620.9,697.3,628.4,692.5,634.8z M784.8,448.4c-19.8,47.6-45.7,89-64.8,137.4c-8.1-3-14-8.3-25.5-7.8c-34.8-0.3-59.4,16.4-72.6,41.2c-7.6,14.3-11.3,28-9.8,53c2.6,10.5,4.6,21.6,9.8,29.4c3.1,6.1,8,10.3,11.8,15.7c3.9,5.3,14.1,4.2,15.7,11.8C608.7,804,573,884.2,525.7,952.7c-15.1-5.8-19.8-22-29.4-33.4c-6.1-14.9-15.1-26.8-21.6-41.2c0.8-7.1,9.7-6,13.7-9.8c3.9-3.3,9.8-4.6,11.8-9.8c9.1-5.3,13.9-14.8,19.6-23.6c1.8-10.6,4.3-39,0-51c-0.5-1.4-3.4-4.7-3.9-5.9c-1.2-2.7-0.5-5.2-2-7.8c-0.5-0.8-3.6-1.3-3.9-2c-0.4-0.9,0.6-3.1,0-3.9c-5.8-7.6-15.7-11.7-21.6-17.7c-23.4-9.4-53.1-4.1-72.6,5.9c-20-38.9-41.3-76.4-58.9-117.7c-8.1-21.4-18.5-40.3-27.5-60.8c-4.5-10.5-11.2-18.9-15.7-29.4c-6.7-7.7-10.2-18.6-17.7-25.5c-8.7-20.8-21.1-37.8-33.4-55c-11.3-18.1-21.3-37.5-31.4-56.9c-18.6-39.7-37.8-78.6-56.9-117.7c0.3-8.2,10.2-6.8,13.7-11.8c5.1-2.8,9.1-6.6,13.7-9.8c12.9-10,22.4-23.4,35.3-33.4c10.1-12.8,19.2-26.6,33.4-35.3c35.6,4.9,57.4,23.7,94.2,27.5h23.6c41.5-5.6,60.8-33.4,96.2-45.1c16.2-1.2,22.9,7.2,35.3,9.8c10.9,4.2,21.4,8.7,31.4,13.7c22.1,3.4,49.5,1.5,74.6,2c23.4-4,31.8-23.1,60.8-21.6c16.3,5.3,26.9,16.3,35.3,29.4c11.2,10.4,20.9,22.3,31.4,33.4c8.8,3.6,15.9,9,23.6,13.7c9.5,1,15.2,5.7,27.5,3.9c4.9,6.2,9.4,12.9,13.7,19.6c7,3.4,15,5.9,19.6,11.8C830.7,358.3,807.6,403.1,784.8,448.4z M933.9,173.6c-2.9,16.7-12.4,26.9-19.6,39.3c-15.7,10.5-25.5,26.8-51,27.5c-6.8,6.1,4.4,12,0,15.7c-8.3,2.2-11.2,9.7-21.6,9.8c-14.9-4.1-19.2-18.8-29.4-27.5c-9.7-2.7-14.4-10.4-25.5-11.8c-6.6-5.8-13.8-11.1-21.6-15.7c-7.7-9.3-15.9-18.2-23.6-27.5c-7.1-4.6-13.9-9.6-19.6-15.7c-7.6-4.2-16.1-7.4-23.5-11.8h-33.4c-7.4,3.7-17.2,5-21.6,11.8c-8.2,2.3-14.6,6.3-21.6,9.8c-9.9,1.3-15.8-2.5-21.6,0c-7.1,1.9-2-8.5-5.9-9.8c-0.5-4-5.2-3.9-7.8-5.9c-8.7-0.2-7.5,9.5-11.8,13.7c-7.9-1.3-13.4-4.9-11.8-15.7c1.4-6-2-7.2-2-11.8c1.7-6.3-5.1-4.1-5.9-7.8c-7.6-1.7-7,4.8-11.8,5.9c0,5.8,0.2,11.9-5.9,11.8c-9.7-0.8-4.6-16.3-5.9-25.5c0.5-10.3,0.7-20.4-7.9-21.6c-19.3-0.3-10.3,27.6-15.7,41.2c-19.8-3.4,3.8-40.1-11.8-45.1c-10.7-0.2-13.5,7.5-13.7,17.7c-4.4,0.8-0.8,9.7-2,13.8c-4.3,0.2-0.8,8.3-2,11.8c-38,7.8-55,36.6-92.2,45.1H357c-34.2-6-57.1-26.1-98.1-19.6c-10.6,3.2-20.3,7.1-27.5,13.7c-10.5,9.8-22.1,18.5-29.4,31.4c-9.1-4.6-5.8-21.7-17.7-23.6c-20.4,7.7,5.7,36.6-5.9,47.1c-13.8-3.9-3.4-31.9-21.6-31.4c-10.8,0.6-7.7,15.4-5.9,23.6c0.4,8.3,8.9,16.1,3.9,23.6c-15-9.9-4.6-45.1-19.6-54.9c-7.8,0.1-8.1,7.6-11.8,11.8c-1.2,10.3,1.5,16.9,2,25.5c-1.9,8.6,7.1,16.3,2,21.6c-6.8-1-5.1-10.6-7.8-15.7c-1.9-5.2-4.1-10.3-3.9-17.7c-6.6-8.5,1.1-31.1-11.8-33.4c-9.2-1.4-5.9,9.8-9.8,13.7c-0.7,14.4,1.6,25.9,3.9,37.3c-8.4-4.7-10-16.2-13.7-25.5c-3.5-9.6-5.6-20.6-5.9-33.4c0.6-9.2,4.2-15.4,5.9-23.5c3.5-1.8,6.1-4.4,7.8-7.8c11.5-4.7,29.4-4.9,43.2-2c4.3,4.9,10.7,7.6,15.7,11.8c13.1-0.6,30.8,3.3,33.4-7.8c1.3-12.4-7.7-14.6-9.8-23.6c15.5-17.2,33.2-32.2,60.8-37.3h37.3c15.3,2.5,25,8.7,37.3,15.7c6.2,3.6,11.7,11.3,21.6,9.8c10.5-1.3,13.2-10.3,11.8-23.5c17.5-0.8,22-14.6,33.4-21.6c9.3-8.4,21.7-13.6,33.4-19.6c27-9,60.7-11.3,98.1-9.8c29,5,50.7,17.3,70.6,31.4c9.1,8.6,11.4,23.9,31.4,21.6c8.8-2.5,14.4-13.6,9.8-23.6c25.5-18.3,62.8-24.8,107.9-23.6c20.6,2.4,39.9,11.8,56.9,19.6c3,1.4,6.2,3.6,9.8,5.9c1.5,1,4.1,0.8,5.9,2c2.9,1.9,4.7,5.4,7.8,7.8c5.5,4.2,7.7,5.5,11.8,9.8c1.2,1.2,3,5.7,5.9,7.8c3.1,13.3,0.3,32.4,13.7,35.3c22.2,1.9,22-18.5,25.5-35.3c32.8-2.1,47.1,14.4,62.8,29.5c1.3,5.2,3.1,10,5.9,13.7L933.9,173.6L933.9,173.6z M402.1,275.7c2.1,1.9,4.7,5.7,5.9,7.8c1.5,2.7,2,6.7,3.9,9.8c3,5,8.3,10.1,11.8,15.7c1.8,2.9,2,6.6,3.9,9.8c1.5,2.5,3.9,4.9,5.9,7.8c3.6,5.3,6.9,11.9,11.8,15.7c2.2,1.7,7,2.5,9.8,3.9c3.4,1.7,5.5,5.7,9.8,3.9c13.5-6.7,30.4-10.1,39.2-21.6c-3-24.5-21.5-33.4-29.4-53c-13.7-13.8-20.2-34.7-33.4-49.1c-6.9-3.4-16.1-1.5-23.5,0c-8.4,6-14.9,13.9-19.6,23.6C399.2,258.9,404.1,263.9,402.1,275.7z M431.5,248.2c6.5,11.6,13,23.4,19.6,35.3c6.5,11.6,12.5,24,21.6,33.4c-0.9,5.7-8.4,4.6-9.8,9.8c-11.1-8.5-15-24.2-25.5-33.4c-2.6-7.2-6.5-13.1-11.8-17.7c-1.6-8.2-10.5-9.1-11.8-17.7C420.1,255,422.3,248.1,431.5,248.2z M645.5,265.8c2.9-4.3,9.8-4.6,9.8-11.8c-6.8-10.8-12.6-22.7-31.4-21.6c-2,2.6-1.9,7.2-3.9,9.8C625.4,253.2,630.3,264.7,645.5,265.8z M574.8,256c-7.6-11.8-28.8-3-27.5,11.8C555.5,278,573.6,269.6,574.8,256z M325.6,334.5c4.7-2.5,3.9-10.4,7.8-13.7c3.3-29.4-7-45.3-19.6-58.9c-5-0.2-6.9-3.6-9.8-5.9c-2.3-0.3-5.6,0.3-5.9-2h-17.7c-9.6,4.8-17.3,11.4-17.7,25.5c-0.8,10,4,14.3,7.8,19.6c3.3,6.6,6.6,13.1,9.8,19.6c7.5,11.4,13.4,24.5,33.4,23.5C317.5,339.5,324,339.5,325.6,334.5z M309.9,322.8c-9.4-2.4-12.6-10.9-17.7-17.7c-2.9-8.2-10.6-11.6-9.8-23.5c-1.4-5.3,3.9-4,3.9-7.8C308.7,274.2,320.4,302,309.9,322.8z M749.5,314.9c-9.7,8-18.5,16.8-17.7,35.3c4.5,3.3,8.4,7.3,15.7,7.8c13.9-4.9,26.9-29.3,13.7-43.2H749.5z M618,340.4c-15.2-0.8-27.8,1-39.3,3.9c-12.8,2.3-20.5,9.6-31.4,13.7c-8.4,9.9-17.9,18.7-25.5,29.4c-3.5,11.3-8.7,25.5-3.9,39.2c4.6,0.6,3.7,6.8,9.8,5.9c0.7,5.2,10,1.8,11.8,5.9c4.7,1.2,14.2-2.5,15.7,2c4.7,1.2,14.2-2.5,15.7,2c-9.9,12.4-13.3,43-9.8,56.9c1.1,4.4,1.9,7.7,3.9,9.8c3,3.2,6.4,7.4,7.8,9.8c5,0.9,9,2.8,11.8,5.9H614c20.2-10.6,32.7-32.6,27.5-62.8c-3.9-3.3-3.1-11.3-7.9-13.7c-0.4-4.3-8.9-10.6-3.9-13.7c12.3,1.5,24.8,2.7,39.3,2c8.9-7.5,9.5-23.2,9.8-39.3C674.5,362.4,652.2,345.4,618,340.4z M653.3,413c-4,4.5-17.6-0.6-21.6,3.9c-8.7-0.2-12.2,6.1-19.6,2c-0.2,5-1.1,9.4-3.9,11.8c-1.5,10.7,2.4,15.9,2,25.5c1.8,8.6,8.3,12.6,7.9,23.6c-2.9,12.1-6,24.1-21.6,23.6c-0.3-2.3-3.6-1.7-5.9-2c-14.5-22.2,2.8-56.7-3.9-82.4c-5.1-4-14.2-4.2-23.6-3.9c-6.5-2.7-15.7-2.6-23.6-3.9c7.2-19.6,24.4-29.2,41.2-39.2c13-2.7,29.4-1.9,45.1-2c0.3,2.3,3.6,1.7,5.9,2c4.8,4.4,10.8,7.6,15.7,11.8C649.4,393.4,654.2,400.3,653.3,413z M258.8,373.8c2.6,9,25.7,11.8,27.5,0C287.1,359.5,258.6,361.3,258.8,373.8z M441.4,448.4c-0.1-0.8-1.7-1.6-2-3.9c-0.8-7-2.3-7.6-3.9-11.8c-1.2-3.1-1-4.8-2-7.9c-2.5-0.8-4-2.5-3.9-5.9c-11.5-10-23.4-19.8-41.2-23.5h-13.7c-1.2,0.1-2.3,0.3-2,2c-24.4,4.3-42.1,15.5-56.9,29.4c-4.7,10.3-10.7,19.4-11.8,33.4c1.7,37.5,22,56.5,49.1,68.7c23.4,5.8,50.3-0.4,66.7-7.8C435.1,508.2,445.5,476.5,441.4,448.4z M408,489.6c-4.4,2.1-8.6,4.4-11.8,7.8c-2.8-0.2-5.6-0.3-5.9,2c-9-0.1-19.2,0.9-25.5-2c-8.5-0.6-12.4-5.9-19.6-7.8c-2.5-6.7-4.4-13.9-5.9-21.6c2.8-13.6,8.8-23.9,11.8-37.3c7.1-4.6,16.7-6.9,25.5-9.8c10.4,0.7,17.6,4.6,25.5,7.8c2,3.9,3.4,8.4,7.9,9.8c2.3,8.2,4.9,16,5.9,25.5C415.1,474.5,411.2,481.6,408,489.6z M741.6,426.8c3.2,8.1,16.8,12.3,23.6,5.9C766.5,420.8,742.7,412.9,741.6,426.8z M388.4,434.6c-2.9,2.9-2.9,12.8,0,15.7h7.8c2.9-2.9,2.9-12.8,0-15.7H388.4z M362.9,450.3c0.3,6.3,4.5,8.6,11.8,7.8C379.9,450,368,442.6,362.9,450.3z M392.3,479.8v-9.8C375.2,460.4,376.7,488.5,392.3,479.8z M710.2,538.6c15.4,0.6,13.3-23,5.9-29.4C695.6,503.5,696.3,537.1,710.2,538.6z M559.1,574c2-2.6,3.2-5.9,5.9-7.8c0.3-10.1-3.9-15.7-7.8-21.6c-16.3-7.6-27.2,6.6-21.6,21.6C542.3,569.8,547.9,574.7,559.1,574z M349.1,560.2c-1.5-5.1-11-8-15.7-3.9c0.3,13.3,14.4,27.5,25.5,17.7C358.6,566.5,356.1,561,349.1,560.2z M514,572c-3.5-1.1-8.1-1-9.8-3.9c-14.6-1.5-21.5,4.7-33.4,5.9c-3.2,5.3-10,7-13.7,11.8c-6.7,2.5-7.4,10.9-15.7,11.8c-5.2-9.2-13.3-15.5-25.5-17.7c-7.1-0.5-9.5,3.6-15.7,3.9c-9.1,9.9-14.1,23.9-15.7,41.2c5.5,39.6,16.7,73.6,53,82.4c11.7,1.9,19.4-3.3,23.6-5.9c12.9-8,24.9-22.1,25.5-39.2c0.7-10.5-5.4-14.2-7.8-21.6c20.5-8.3,41.1-16.5,47.1-39.2C527.2,586.3,520.2,579.5,514,572z M486.5,617.1c-10,2.4-21.5,3.3-27.5,9.8c0.5,6.7-1.5,15.9,2,19.6c1.9,5.3,3.2,11.2,5.9,15.7c-4.3,8.1-9.4,15.5-19.6,17.6c-28.9-5.4-47.1-39.3-35.3-72.6c16.1-1.7,16.3,12.5,29.4,13.7c8.2,1.7,7.8-5.3,11.8-7.8c4.6-1.3,5.3-6.5,9.8-7.8c6.1-6.3,14.5-10.3,21.6-15.7c10.4-0.3,16.4-3.6,21.6,3.9C506.4,608.3,492.4,608.6,486.5,617.1z M663.1,634.8c4.5,0.5,7.4-0.5,7.8-3.9c-2.8-0.5-3.3-3.2-5.9-3.9C664.5,629.6,662.3,630.7,663.1,634.8z M659.2,648.5c-3,2.8-6.2,9.5-2,13.8c7.3,0.8,11.5-1.6,11.8-7.9C666,652.2,664.9,648,659.2,648.5z M553.2,668.2c-3.5-1.7-5-5.5-11.8-3.9c-8.5,6.5-21.5,8.6-21.6,23.6c3.9,5.8,17.6,5,19.6-2C547.4,683.3,554.2,679.6,553.2,668.2z M570.9,697.6h-2c-10.1,10.2-21.5,19.1-23.6,37.3c4,14.3,10.6,26.1,17.7,37.3c1.5,7.7,7.7,10.7,9.8,17.7c5.7,3.5,6.4,11.9,15.7,11.8c16.6-4.3,27.5-14.4,33.4-29.4c0.3-4.9-3-6.1-5.9-7.9c1.1-6.4-1.3-9.1-2-13.7c-7-8.7-13.4-18-19.6-27.5C586.2,715,585.7,699.2,570.9,697.6z M594.4,780c-4.3-0.3-4.2-4.9-3.9-9.8c-7.9-11.7-18.6-20.6-27.5-31.4c-1.7-8.9,4.6-9.8,5.9-15.7c2.6,0.7,3.1,3.5,5.9,3.9c6.2,16,15.8,28.7,27.5,39.3C601.9,773.1,595.3,773.7,594.4,780z M466.9,783.9c-4.8-0.3-9.4-0.3-11.8,2c-0.6,4.6,0.3,7.5,2,9.8c4.8,0.3,9.5,0.3,11.8-2C470.5,788.2,466.1,788.7,466.9,783.9z M480.6,811.4c-1.6,0.4-2,2-3.9,2c-3,11.1,9,14.6,15.7,9.8C492.3,815.4,488.4,811.5,480.6,811.4z M506.1,874.2c2,9,13.2,17.5,23.6,11.8C538.3,873.2,510.5,856.1,506.1,874.2z"/></g></g><g></g><g></g><g></g><g></g><g></g><g></g><g></g><g></g><g></g><g></g><g></g><g></g><g></g><g></g><g></g></g>
</svg>